<svg viewBox="0 0 330 200" xmlns="http://www.w3.org/2000/svg"><g><g><g><g><g><line x1="50" y1="178" x2="45" y2="178" style="visibility: inherit;" fill="rgb(0, 0, 0)" stroke="rgb(204, 204, 204)" stroke-width="1px"></line><line x1="50" y1="160.2" x2="45" y2="160.2" style="visibility: inherit;" fill="rgb(0, 0, 0)" stroke="rgb(204, 204, 204)" stroke-width="1px"></line><line x1="50" y1="142.4" x2="45" y2="142.4" style="visibility: inherit;" fill="rgb(0, 0, 0)" stroke="rgb(204, 204, 204)" stroke-width="1px"></line><line x1="50" y1="124.6" x2="45" y2="124.6" style="visibility: inherit;" fill="rgb(0, 0, 0)" stroke="rgb(204, 204, 204)" stroke-width="1px"></line><line x1="50" y1="106.8" x2="45" y2="106.8" style="visibility: inherit;" fill="rgb(0, 0, 0)" stroke="rgb(204, 204, 204)" stroke-width="1px"></line><line x1="50" y1="89" x2="45" y2="89" style="visibility: inherit;" fill="rgb(0, 0, 0)" stroke="rgb(204, 204, 204)" stroke-width="1px"></line><line x1="50" y1="71.2" x2="45" y2="71.2" style="visibility: inherit;" fill="rgb(0, 0, 0)" stroke="rgb(204, 204, 204)" stroke-width="1px"></line><line x1="50" y1="53.400000000000006" x2="45" y2="53.400000000000006" style="visibility: inherit;" fill="rgb(0, 0, 0)" stroke="rgb(204, 204, 204)" stroke-width="1px"></line><line x1="50" y1="35.60000000000002" x2="45" y2="35.60000000000002" style="visibility: inherit;" fill="rgb(0, 0, 0)" stroke="rgb(204, 204, 204)" stroke-width="1px"></line><line x1="50" y1="17.799999999999983" x2="45" y2="17.799999999999983" style="visibility: inherit;" fill="rgb(0, 0, 0)" stroke="rgb(204, 204, 204)" stroke-width="1px"></line><line x1="50" y1="0" x2="45" y2="0" style="visibility: inherit;" fill="rgb(0, 0, 0)" stroke="rgb(204, 204, 204)" stroke-width="1px"></line></g><g transform="translate(40, 0)"><text x="0" y="178" dx="0em" dy="0.3em" style="text-anchor: end; visibility: hidden; font-family: &quot;Helvetica Neue&quot;, sans-serif; font-size: 12px; font-weight: 200;" fill="rgb(50, 49, 63)" stroke="none" stroke-width="1px">-0.1</text><text x="0" y="160.2" dx="0em" dy="0.3em" style="text-anchor: end; visibility: inherit; font-family: &quot;Helvetica Neue&quot;, sans-serif; font-size: 12px; font-weight: 200;" fill="rgb(50, 49, 63)" stroke="none" stroke-width="1px">0</text><text x="0" y="142.4" dx="0em" dy="0.3em" style="text-anchor: end; visibility: hidden; font-family: &quot;Helvetica Neue&quot;, sans-serif; font-size: 12px; font-weight: 200;" fill="rgb(50, 49, 63)" stroke="none" stroke-width="1px">0.1</text><text x="0" y="124.6" dx="0em" dy="0.3em" style="text-anchor: end; visibility: inherit; font-family: &quot;Helvetica Neue&quot;, sans-serif; font-size: 12px; font-weight: 200;" fill="rgb(50, 49, 63)" stroke="none" stroke-width="1px">0.2</text><text x="0" y="106.8" dx="0em" dy="0.3em" style="text-anchor: end; visibility: hidden; font-family: &quot;Helvetica Neue&quot;, sans-serif; font-size: 12px; font-weight: 200;" fill="rgb(50, 49, 63)" stroke="none" stroke-width="1px">0.3</text><text x="0" y="89" dx="0em" dy="0.3em" style="text-anchor: end; visibility: inherit; font-family: &quot;Helvetica Neue&quot;, sans-serif; font-size: 12px; font-weight: 200;" fill="rgb(50, 49, 63)" stroke="none" stroke-width="1px">0.4</text><text x="0" y="71.2" dx="0em" dy="0.3em" style="text-anchor: end; visibility: hidden; font-family: &quot;Helvetica Neue&quot;, sans-serif; font-size: 12px; font-weight: 200;" fill="rgb(50, 49, 63)" stroke="none" stroke-width="1px">0.5</text><text x="0" y="53.400000000000006" dx="0em" dy="0.3em" style="text-anchor: end; visibility: inherit; font-family: &quot;Helvetica Neue&quot;, sans-serif; font-size: 12px; font-weight: 200;" fill="rgb(50, 49, 63)" stroke="none" stroke-width="1px">0.6</text><text x="0" y="35.60000000000002" dx="0em" dy="0.3em" style="text-anchor: end; visibility: hidden; font-family: &quot;Helvetica Neue&quot;, sans-serif; font-size: 12px; font-weight: 200;" fill="rgb(50, 49, 63)" stroke="none" stroke-width="1px">0.7</text><text x="0" y="17.799999999999983" dx="0em" dy="0.3em" style="text-anchor: end; visibility: inherit; font-family: &quot;Helvetica Neue&quot;, sans-serif; font-size: 12px; font-weight: 200;" fill="rgb(50, 49, 63)" stroke="none" stroke-width="1px">0.8</text><text x="0" y="0" dx="0em" dy="0.3em" style="text-anchor: end; visibility: hidden; font-family: &quot;Helvetica Neue&quot;, sans-serif; font-size: 12px; font-weight: 200;" fill="rgb(50, 49, 63)" stroke="none" stroke-width="1px">0.9</text></g><line x1="50" y1="0" x2="50" y2="178" fill="rgb(0, 0, 0)" stroke="rgb(204, 204, 204)" stroke-width="1px"></line></g></g><g transform="translate(50, 0)" clip-path="url(#clip_0)"><clipPath id="clip_0"><rect width="280" height="178"></rect></clipPath><g><g><g><line x1="0" y1="0" x2="0" y2="178" fill="rgb(0, 0, 0)" stroke="rgb(60, 60, 60)" stroke-width="1px" opacity="0.25"></line><line x1="23.333333333333332" y1="0" x2="23.333333333333332" y2="178" fill="rgb(0, 0, 0)" stroke="rgb(60, 60, 60)" stroke-width="1px" opacity="0.25"></line><line x1="46.666666666666664" y1="0" x2="46.666666666666664" y2="178" fill="rgb(0, 0, 0)" stroke="rgb(60, 60, 60)" stroke-width="1px" opacity="0.25"></line><line x1="70" y1="0" x2="70" y2="178" fill="rgb(0, 0, 0)" stroke="rgb(60, 60, 60)" stroke-width="1px" opacity="0.25"></line><line x1="93.33333333333333" y1="0" x2="93.33333333333333" y2="178" fill="rgb(0, 0, 0)" stroke="rgb(60, 60, 60)" stroke-width="1px" opacity="0.25"></line><line x1="116.66666666666667" y1="0" x2="116.66666666666667" y2="178" fill="rgb(0, 0, 0)" stroke="rgb(60, 60, 60)" stroke-width="1px" opacity="0.25"></line><line x1="140" y1="0" x2="140" y2="178" fill="rgb(0, 0, 0)" stroke="rgb(60, 60, 60)" stroke-width="1px" opacity="0.25"></line><line x1="163.33333333333334" y1="0" x2="163.33333333333334" y2="178" fill="rgb(0, 0, 0)" stroke="rgb(60, 60, 60)" stroke-width="1px" opacity="0.25"></line><line x1="186.66666666666666" y1="0" x2="186.66666666666666" y2="178" fill="rgb(0, 0, 0)" stroke="rgb(60, 60, 60)" stroke-width="1px" opacity="0.25"></line><line x1="210" y1="0" x2="210" y2="178" fill="rgb(0, 0, 0)" stroke="rgb(60, 60, 60)" stroke-width="1px" opacity="0.25"></line><line x1="233.33333333333334" y1="0" x2="233.33333333333334" y2="178" fill="rgb(0, 0, 0)" stroke="rgb(60, 60, 60)" stroke-width="1px" opacity="0.25"></line><line x1="256.66666666666663" y1="0" x2="256.66666666666663" y2="178" fill="rgb(0, 0, 0)" stroke="rgb(60, 60, 60)" stroke-width="1px" opacity="0.25"></line><line x1="280" y1="0" x2="280" y2="178" fill="rgb(0, 0, 0)" stroke="rgb(60, 60, 60)" stroke-width="1px" opacity="0.25"></line></g><g><line x1="0" y1="178" x2="280" y2="178" fill="rgb(0, 0, 0)" stroke="rgb(60, 60, 60)" stroke-width="1px" opacity="0.25"></line><line x1="0" y1="160.2" x2="280" y2="160.2" fill="rgb(0, 0, 0)" stroke="rgb(60, 60, 60)" stroke-width="1px" opacity="0.25"></line><line x1="0" y1="142.4" x2="280" y2="142.4" fill="rgb(0, 0, 0)" stroke="rgb(60, 60, 60)" stroke-width="1px" opacity="0.25"></line><line x1="0" y1="124.6" x2="280" y2="124.6" fill="rgb(0, 0, 0)" stroke="rgb(60, 60, 60)" stroke-width="1px" opacity="0.25"></line><line x1="0" y1="106.8" x2="280" y2="106.8" fill="rgb(0, 0, 0)" stroke="rgb(60, 60, 60)" stroke-width="1px" opacity="0.25"></line><line x1="0" y1="89" x2="280" y2="89" fill="rgb(0, 0, 0)" stroke="rgb(60, 60, 60)" stroke-width="1px" opacity="0.25"></line><line x1="0" y1="71.2" x2="280" y2="71.2" fill="rgb(0, 0, 0)" stroke="rgb(60, 60, 60)" stroke-width="1px" opacity="0.25"></line><line x1="0" y1="53.400000000000006" x2="280" y2="53.400000000000006" fill="rgb(0, 0, 0)" stroke="rgb(60, 60, 60)" stroke-width="1px" opacity="0.25"></line><line x1="0" y1="35.60000000000002" x2="280" y2="35.60000000000002" fill="rgb(0, 0, 0)" stroke="rgb(60, 60, 60)" stroke-width="1px" opacity="0.25"></line><line x1="0" y1="17.799999999999983" x2="280" y2="17.799999999999983" fill="rgb(0, 0, 0)" stroke="rgb(60, 60, 60)" stroke-width="1px" opacity="0.25"></line><line x1="0" y1="0" x2="280" y2="0" fill="rgb(0, 0, 0)" stroke="rgb(60, 60, 60)" stroke-width="1px" opacity="0.25"></line></g></g></g><g><g><line x1="0" y1="160.2" x2="280" y2="160.2" fill="rgb(0, 0, 0)" stroke="rgb(153, 153, 153)" stroke-width="1.5px"></line></g></g><g><g><line x1="23.333333333333332" y1="0" x2="23.333333333333332" y2="178" fill="rgb(0, 0, 0)" stroke="rgb(153, 153, 153)" stroke-width="1.5px"></line></g></g><g><g><g><g><g><path stroke="rgb(0, 119, 187)" stroke-width="2px" d="M23.333333333333332,129.05000053048133L25.666666666666664,129.05000053048133L28,129.05000053048133L30.333333333333336,129.05000053048133L32.666666666666664,129.05000053048133L35,129.05000053048133L37.333333333333336,129.05000053048133L39.666666666666664,129.05000053048133L42,129.05000053048133L44.33333333333333,129.05000053048133L46.666666666666664,127.38866559863091L49,127.38866559863091L51.33333333333333,127.38866559863091L53.66666666666667,127.38866559863091L56,127.38866559863091L58.333333333333336,127.38866559863091L60.66666666666667,127.38866559863091L63,127.38866559863091L65.33333333333333,127.38866559863091L67.66666666666667,127.38866559863091L70,127.38866559863091L72.33333333333334,127.38866559863091L74.66666666666667,127.38866559863091L77,127.38866559863091L23.333333333333332,127.09199921488762L25.666666666666664,128.99066619277L28,128.93133450746535L23.333333333333332,128.2193330645561L25.666666666666664,129.05000053048133L28,128.99066619277L30.333333333333336,129.10933221578597L32.666666666666664,128.57533378601073L35,126.49866644740105L37.333333333333336,104.66399885416031L39.666666666666664,83.12600029706955L42,66.75000424385071L44.33333333333333,70.42866952419281L46.666666666666664,52.33199889659882L49,44.559333276748674L51.33333333333333,39.57533378601076L53.66666666666667,37.676666808128374L56,32.81133599281313L58.333333333333336,31.74332852363588L60.66666666666667,31.683999490737932L63,30.912669014930742L65.33333333333333,30.37866528034212L67.66666666666667,30.556662988662737L70,29.191999745368975L72.33333333333334,28.361329627037065L74.66666666666667,28.361329627037065L77,28.1240028858185L79.33333333333333,27.11533505916597L81.66666666666667,27.055995416641252L84,26.640670967102068L86.33333333333334,26.34400458335878L88.66666666666666,26.106667232513445L91,25.81000084877016L93.33333333333333,25.75067181587221L95.66666666666667,25.275997114181536L98,25.394665789604204L100.33333333333333,25.03867037296297L102.66666666666666,25.03867037296297L105,24.682664346694963L107.33333333333334,24.504666638374346L109.66666666666667,24.504666638374346L112,24.504666638374346L114.33333333333333,24.030002546310442L116.66666666666667,24.030002546310442L119,24.14867122173311L121.33333333333334,23.970662903785723L123.66666666666666,24.20800025463106L126,24.20800025463106L128.33333333333331,24.14867122173311L130.66666666666666,24.030002546310442L133,24.030002546310442L23.333333333333332,129.05000053048133L23.333333333333332,129.05000053048133L25.666666666666664,128.99066619277L28,128.5159994482994L30.333333333333336,128.75333414673804L32.666666666666664,122.22666574716568L35,116.70866782665253L37.333333333333336,84.25333149433136L39.666666666666664,80.33733416795731L42,62.12200016975403L44.33333333333333,58.14666850566864L46.666666666666664,57.79066247940064L49,44.440664601326006L51.33333333333333,39.69400246143343L53.66666666666667,35.42200441360475L56,32.09933454990389L58.333333333333336,31.268664431571978L60.66666666666667,29.66666383743288L63,29.132670712471025L65.33333333333333,28.77666468620302L67.66666666666667,30.081998896598833L70,29.310668420791643L72.33333333333334,29.191999745368975L74.66666666666667,28.65799601078035L77,28.539337944984453L79.33333333333333,28.06466324329378L81.66666666666667,28.479998302459734L84,27.94600517749788L86.33333333333334,26.165996265411394L88.66666666666666,26.047338199615496L91,25.928669524192827L93.33333333333333,25.75067181587221L95.66666666666667,25.57266349792482L98,25.453994822502153L100.33333333333333,25.216668081283586L102.66666666666666,25.157328438758867L105,25.216668081283586L107.33333333333334,25.03867037296297L109.66666666666667,24.9200016975403L112,24.801333022117632L114.33333333333333,24.742003989219683L116.66666666666667,24.682664346694963L119,24.445337605476396L121.33333333333334,24.14867122173311L123.66666666666666,24.030002546310442L126,23.970662903785723L128.33333333333331,23.911333870887773L130.66666666666666,23.911333870887773L133,23.733336162567156L135.33333333333334,23.792665195465105L137.66666666666666,23.673996520042436L140,23.614667487144487L142.33333333333331,23.614667487144487L144.66666666666669,23.614667487144487L147,23.614667487144487L149.33333333333334,23.614667487144487L151.66666666666666,23.614667487144487L154,23.614667487144487L156.33333333333334,23.614667487144487L158.66666666666666,23.49599881172182L161,23.43666977882387L163.33333333333334,23.49599881172182L165.66666666666666,23.49599881172182L168,23.555338454246538L170.33333333333331,23.555338454246538L172.66666666666669,23.555338454246538L175,23.49599881172182L177.33333333333331,23.555338454246538L179.66666666666669,23.555338454246538L182,23.555338454246538L184.33333333333334,23.555338454246538L186.66666666666666,23.555338454246538L189,23.555338454246538L191.33333333333334,23.555338454246538L193.66666666666666,23.555338454246538L196,23.555338454246538L198.33333333333334,23.555338454246538L200.66666666666666,23.614667487144487L203,23.614667487144487L205.33333333333331,23.614667487144487L207.66666666666669,23.614667487144487L210,23.614667487144487L212.33333333333331,23.555338454246538L214.66666666666669,23.555338454246538L217,23.614667487144487L219.33333333333334,23.614667487144487L221.66666666666666,23.614667487144487L224,23.614667487144487L226.33333333333334,23.614667487144487L228.66666666666666,23.614667487144487L231,23.614667487144487L233.33333333333334,23.614667487144487L235.66666666666666,23.614667487144487L238,23.614667487144487L240.33333333333331,23.614667487144487L242.66666666666669,23.614667487144487L245,23.614667487144487L247.33333333333331,23.614667487144487L249.66666666666669,23.614667487144487L252,23.614667487144487L254.33333333333334,23.614667487144487L256.66666666666663,23.614667487144487L259,23.614667487144487L261.3333333333333,23.614667487144487L263.6666666666667,23.614667487144487L266,23.614667487144487L268.33333333333337,23.614667487144487L270.6666666666667,23.614667487144487" style="fill: none;" fill="none"></path></g><g><path stroke="rgb(255, 112, 67)" stroke-width="2px" d="M23.333333333333332,56.968564939498904L25.666666666666664,61.042576742172244L28,87.24057800769806L30.333333333333336,105.98105139732361L32.666666666666664,109.66838474273682L35,110.34508265256882L37.333333333333336,112.14041186571122L39.666666666666664,112.08517284393311L42,112.96902902126313L44.33333333333333,113.85287989377976L46.666666666666664,114.84721941947937L49,116.55968744754792L51.33333333333333,118.43787784576416L53.66666666666667,120.01224301457405L56,121.8904334127903L58.333333333333336,124.39008535146714L60.66666666666667,125.35680006146431L63,126.61353157162667L65.33333333333333,126.84830404520035L67.66666666666667,127.8840715110302L70,130.10751773118972L72.33333333333334,130.452773553133L74.66666666666667,130.94994066357611L77,132.04094980359076L23.333333333333332,78.47108490467072L25.666666666666664,79.94877780675888L28,72.47744680643082L23.333333333333332,76.60670293569565L25.666666666666664,61.13925166130066L28,75.55712438821793L30.333333333333336,75.36378515958786L32.666666666666664,69.78445298671723L35,64.35703475475312L37.333333333333336,63.45936484336853L39.666666666666664,60.60065395832062L42,53.77839870452881L44.33333333333333,49.48342020511629L46.666666666666664,47.82619650363924L49,46.51422066688539L51.33333333333333,45.07795305252077L53.66666666666667,43.185959529876726L56,43.21357638835909L58.333333333333336,41.79112250804903L60.66666666666667,41.23871107101442L63,41.7496919155121L65.33333333333333,40.686310243606584L67.66666666666667,39.99579329490663L70,40.21675999164583L72.33333333333334,38.89098103046419L74.66666666666667,38.94621474742891L77,38.40761704444887L79.33333333333333,39.01527280807497L81.66666666666667,37.56519145965578L84,37.21994359493257L86.33333333333334,36.971360039711016L88.66666666666666,36.36370427608492L91,36.39132113456728L93.33333333333333,35.60413987636568L95.66666666666667,34.54075820446016L98,34.9136335372925L100.33333333333333,34.09882481098177L102.66666666666666,33.14592118263246L105,33.03544313907625L107.33333333333334,33.62928516864778L109.66666666666667,32.12397010326387L112,32.510648560524004L114.33333333333333,31.91681714057924L116.66666666666667,31.73728103637697L119,31.806328487396257L121.33333333333334,31.985864591598528L123.66666666666666,31.088194680213945L126,31.240113925933855L128.33333333333331,30.756749939918535L130.66666666666666,31.171055865287798L133,30.701516222953813L23.333333333333332,69.28728587627411L23.333333333333332,77.68390364646912L25.666666666666664,67.60243470668793L28,62.0783415555954L30.333333333333336,60.918284964561465L32.666666666666664,59.91013700962067L35,56.59568960666657L37.333333333333336,54.040795993804934L39.666666666666664,50.68490738868714L42,50.20155401229859L44.33333333333333,49.62152571678163L46.666666666666664,44.8846138238907L49,41.69444758892061L51.33333333333333,42.41258139610292L53.66666666666667,42.05351979732515L56,42.50925631523134L58.333333333333336,40.81060202121736L60.66666666666667,39.63673169612886L63,39.415764999389665L65.33333333333333,38.89098103046419L67.66666666666667,38.10378916263582L70,36.86087138652803L72.33333333333334,36.80563766956331L74.66666666666667,37.0404074907303L77,36.98516316413881L79.33333333333333,37.123268675804155L81.66666666666667,36.819440793991106L84,36.101306986808794L86.33333333333334,35.8665371656418L88.66666666666666,35.42461438179018L91,35.12078649997713L93.33333333333333,33.988346767425554L95.66666666666667,34.76171429157259L98,34.20931346416475L100.33333333333333,33.39450473785402L102.66666666666666,33.504993391037004L105,32.66256780624391L107.33333333333334,31.985864591598528L109.66666666666667,31.70966417789461L112,31.61298925876619L114.33333333333333,31.46108062267305L116.66666666666667,31.005333495140093L119,32.09634263515474L121.33333333333334,31.336778235435503L123.66666666666666,30.549596977233904L126,31.07439155578615L128.33333333333331,30.64627189636232L130.66666666666666,31.10200841426851L133,30.53579385280611L135.33333333333334,30.43911893367769L137.66666666666666,29.95576555728914L140,29.886707496643083L142.33333333333331,30.038626742362993L144.66666666666669,30.024813008308428L147,29.914334964752214L149.33333333333334,29.29286546707155L151.66666666666666,29.65193767547609L154,29.734798860549944L156.33333333333334,29.665740799903887L158.66666666666666,29.251434874534624L161,29.403354120254534L163.33333333333334,29.638123941421526L165.66666666666666,29.5966933488846L168,29.817660045623796L170.33333333333331,29.44478471279146L172.66666666666669,29.541449022293108L175,28.823325824737566L177.33333333333331,29.845276904106157L179.66666666666669,29.38954038619997L182,28.878559541702288L184.33333333333334,29.251434874534624L186.66666666666666,29.002851319313066L189,28.975234460830706L191.33333333333334,28.96142072677614L193.66666666666666,29.196201157569902L196,30.10767419338228L198.33333333333334,29.11333997249605L200.66666666666666,29.210004281997698L203,29.762415719032305L205.33333333333331,29.638123941421526L207.66666666666669,29.127143096923845L210,29.058095645904558L212.33333333333331,29.11333997249605L214.66666666666669,29.044281911849993L217,29.26524860858919L219.33333333333334,29.154770565032976L221.66666666666666,29.38954038619997L224,28.823325824737566L226.33333333333334,29.5966933488846L228.66666666666666,28.65760345458986L231,29.058095645904558L233.33333333333334,29.16857368946077L235.66666666666666,29.16857368946077L238,29.251434874534624L240.33333333333331,29.14095683097841L242.66666666666669,29.08571250438692L245,29.486215305328386L247.33333333333331,29.14095683097841L249.66666666666669,29.196201157569902L252,29.361923527717607L254.33333333333334,29.16857368946077L256.66666666666663,29.555262756347673L259,29.26524860858919L261.3333333333333,28.892373275756853L263.6666666666667,29.527645897865312L266,28.975234460830706L268.33333333333337,29.08571250438692L270.6666666666667,29.08571250438692" style="fill: none;" fill="none"></path></g></g></g></g></g></g><g transform="translate(50, 178)" clip-path="url(#clip_1)"><clipPath id="clip_1"><rect width="280" height="22"></rect></clipPath><g><g><line x1="0" y1="0" x2="0" y2="5" style="visibility: inherit;" fill="rgb(0, 0, 0)" stroke="rgb(204, 204, 204)" stroke-width="1px"></line><line x1="23.333333333333332" y1="0" x2="23.333333333333332" y2="5" style="visibility: inherit;" fill="rgb(0, 0, 0)" stroke="rgb(204, 204, 204)" stroke-width="1px"></line><line x1="46.666666666666664" y1="0" x2="46.666666666666664" y2="5" style="visibility: inherit;" fill="rgb(0, 0, 0)" stroke="rgb(204, 204, 204)" stroke-width="1px"></line><line x1="70" y1="0" x2="70" y2="5" style="visibility: inherit;" fill="rgb(0, 0, 0)" stroke="rgb(204, 204, 204)" stroke-width="1px"></line><line x1="93.33333333333333" y1="0" x2="93.33333333333333" y2="5" style="visibility: inherit;" fill="rgb(0, 0, 0)" stroke="rgb(204, 204, 204)" stroke-width="1px"></line><line x1="116.66666666666667" y1="0" x2="116.66666666666667" y2="5" style="visibility: inherit;" fill="rgb(0, 0, 0)" stroke="rgb(204, 204, 204)" stroke-width="1px"></line><line x1="140" y1="0" x2="140" y2="5" style="visibility: inherit;" fill="rgb(0, 0, 0)" stroke="rgb(204, 204, 204)" stroke-width="1px"></line><line x1="163.33333333333334" y1="0" x2="163.33333333333334" y2="5" style="visibility: inherit;" fill="rgb(0, 0, 0)" stroke="rgb(204, 204, 204)" stroke-width="1px"></line><line x1="186.66666666666666" y1="0" x2="186.66666666666666" y2="5" style="visibility: inherit;" fill="rgb(0, 0, 0)" stroke="rgb(204, 204, 204)" stroke-width="1px"></line><line x1="210" y1="0" x2="210" y2="5" style="visibility: inherit;" fill="rgb(0, 0, 0)" stroke="rgb(204, 204, 204)" stroke-width="1px"></line><line x1="233.33333333333334" y1="0" x2="233.33333333333334" y2="5" style="visibility: inherit;" fill="rgb(0, 0, 0)" stroke="rgb(204, 204, 204)" stroke-width="1px"></line><line x1="256.66666666666663" y1="0" x2="256.66666666666663" y2="5" style="visibility: inherit;" fill="rgb(0, 0, 0)" stroke="rgb(204, 204, 204)" stroke-width="1px"></line><line x1="280" y1="0" x2="280" y2="5" style="visibility: inherit;" fill="rgb(0, 0, 0)" stroke="rgb(204, 204, 204)" stroke-width="1px"></line></g><g transform="translate(0, 8)"><text x="0" y="0" dx="0em" dy="0.95em" style="text-anchor: middle; visibility: hidden; font-family: &quot;Helvetica Neue&quot;, sans-serif; font-size: 12px; font-weight: 200;" fill="rgb(50, 49, 63)" stroke="none" stroke-width="1px">-10</text><text x="23.333333333333332" y="0" dx="0em" dy="0.95em" style="text-anchor: middle; visibility: inherit; font-family: &quot;Helvetica Neue&quot;, sans-serif; font-size: 12px; font-weight: 200;" fill="rgb(50, 49, 63)" stroke="none" stroke-width="1px">0</text><text x="46.666666666666664" y="0" dx="0em" dy="0.95em" style="text-anchor: middle; visibility: inherit; font-family: &quot;Helvetica Neue&quot;, sans-serif; font-size: 12px; font-weight: 200;" fill="rgb(50, 49, 63)" stroke="none" stroke-width="1px">10</text><text x="70" y="0" dx="0em" dy="0.95em" style="text-anchor: middle; visibility: inherit; font-family: &quot;Helvetica Neue&quot;, sans-serif; font-size: 12px; font-weight: 200;" fill="rgb(50, 49, 63)" stroke="none" stroke-width="1px">20</text><text x="93.33333333333333" y="0" dx="0em" dy="0.95em" style="text-anchor: middle; visibility: inherit; font-family: &quot;Helvetica Neue&quot;, sans-serif; font-size: 12px; font-weight: 200;" fill="rgb(50, 49, 63)" stroke="none" stroke-width="1px">30</text><text x="116.66666666666667" y="0" dx="0em" dy="0.95em" style="text-anchor: middle; visibility: inherit; font-family: &quot;Helvetica Neue&quot;, sans-serif; font-size: 12px; font-weight: 200;" fill="rgb(50, 49, 63)" stroke="none" stroke-width="1px">40</text><text x="140" y="0" dx="0em" dy="0.95em" style="text-anchor: middle; visibility: inherit; font-family: &quot;Helvetica Neue&quot;, sans-serif; font-size: 12px; font-weight: 200;" fill="rgb(50, 49, 63)" stroke="none" stroke-width="1px">50</text><text x="163.33333333333334" y="0" dx="0em" dy="0.95em" style="text-anchor: middle; visibility: inherit; font-family: &quot;Helvetica Neue&quot;, sans-serif; font-size: 12px; font-weight: 200;" fill="rgb(50, 49, 63)" stroke="none" stroke-width="1px">60</text><text x="186.66666666666666" y="0" dx="0em" dy="0.95em" style="text-anchor: middle; visibility: inherit; font-family: &quot;Helvetica Neue&quot;, sans-serif; font-size: 12px; font-weight: 200;" fill="rgb(50, 49, 63)" stroke="none" stroke-width="1px">70</text><text x="210" y="0" dx="0em" dy="0.95em" style="text-anchor: middle; visibility: inherit; font-family: &quot;Helvetica Neue&quot;, sans-serif; font-size: 12px; font-weight: 200;" fill="rgb(50, 49, 63)" stroke="none" stroke-width="1px">80</text><text x="233.33333333333334" y="0" dx="0em" dy="0.95em" style="text-anchor: middle; visibility: inherit; font-family: &quot;Helvetica Neue&quot;, sans-serif; font-size: 12px; font-weight: 200;" fill="rgb(50, 49, 63)" stroke="none" stroke-width="1px">90</text><text x="256.66666666666663" y="0" dx="0em" dy="0.95em" style="text-anchor: middle; visibility: inherit; font-family: &quot;Helvetica Neue&quot;, sans-serif; font-size: 12px; font-weight: 200;" fill="rgb(50, 49, 63)" stroke="none" stroke-width="1px">100</text><text x="280" y="0" dx="0em" dy="0.95em" style="text-anchor: middle; visibility: hidden; font-family: &quot;Helvetica Neue&quot;, sans-serif; font-size: 12px; font-weight: 200;" fill="rgb(50, 49, 63)" stroke="none" stroke-width="1px">110</text></g><line x1="0" y1="0" x2="280" y2="0" fill="rgb(0, 0, 0)" stroke="rgb(204, 204, 204)" stroke-width="1px"></line></g></g></g></g></svg>