<svg viewBox="0 0 330 200" xmlns="http://www.w3.org/2000/svg"><g><g><g><g><g><line x1="50" y1="178" x2="45" y2="178" style="visibility: inherit;" fill="rgb(0, 0, 0)" stroke="rgb(204, 204, 204)" stroke-width="1px"></line><line x1="50" y1="152.57142857142858" x2="45" y2="152.57142857142858" style="visibility: inherit;" fill="rgb(0, 0, 0)" stroke="rgb(204, 204, 204)" stroke-width="1px"></line><line x1="50" y1="127.14285714285714" x2="45" y2="127.14285714285714" style="visibility: inherit;" fill="rgb(0, 0, 0)" stroke="rgb(204, 204, 204)" stroke-width="1px"></line><line x1="50" y1="101.71428571428572" x2="45" y2="101.71428571428572" style="visibility: inherit;" fill="rgb(0, 0, 0)" stroke="rgb(204, 204, 204)" stroke-width="1px"></line><line x1="50" y1="76.28571428571429" x2="45" y2="76.28571428571429" style="visibility: inherit;" fill="rgb(0, 0, 0)" stroke="rgb(204, 204, 204)" stroke-width="1px"></line><line x1="50" y1="50.85714285714286" x2="45" y2="50.85714285714286" style="visibility: inherit;" fill="rgb(0, 0, 0)" stroke="rgb(204, 204, 204)" stroke-width="1px"></line><line x1="50" y1="25.428571428571445" x2="45" y2="25.428571428571445" style="visibility: inherit;" fill="rgb(0, 0, 0)" stroke="rgb(204, 204, 204)" stroke-width="1px"></line><line x1="50" y1="0" x2="45" y2="0" style="visibility: inherit;" fill="rgb(0, 0, 0)" stroke="rgb(204, 204, 204)" stroke-width="1px"></line></g><g transform="translate(40, 0)"><text x="0" y="178" dx="0em" dy="0.3em" style="text-anchor: end; visibility: hidden; font-family: &quot;Helvetica Neue&quot;, sans-serif; font-size: 12px; font-weight: 200;" fill="rgb(50, 49, 63)" stroke="none" stroke-width="1px">-0.5</text><text x="0" y="152.57142857142858" dx="0em" dy="0.3em" style="text-anchor: end; visibility: inherit; font-family: &quot;Helvetica Neue&quot;, sans-serif; font-size: 12px; font-weight: 200;" fill="rgb(50, 49, 63)" stroke="none" stroke-width="1px">0</text><text x="0" y="127.14285714285714" dx="0em" dy="0.3em" style="text-anchor: end; visibility: inherit; font-family: &quot;Helvetica Neue&quot;, sans-serif; font-size: 12px; font-weight: 200;" fill="rgb(50, 49, 63)" stroke="none" stroke-width="1px">0.5</text><text x="0" y="101.71428571428572" dx="0em" dy="0.3em" style="text-anchor: end; visibility: inherit; font-family: &quot;Helvetica Neue&quot;, sans-serif; font-size: 12px; font-weight: 200;" fill="rgb(50, 49, 63)" stroke="none" stroke-width="1px">1</text><text x="0" y="76.28571428571429" dx="0em" dy="0.3em" style="text-anchor: end; visibility: inherit; font-family: &quot;Helvetica Neue&quot;, sans-serif; font-size: 12px; font-weight: 200;" fill="rgb(50, 49, 63)" stroke="none" stroke-width="1px">1.5</text><text x="0" y="50.85714285714286" dx="0em" dy="0.3em" style="text-anchor: end; visibility: inherit; font-family: &quot;Helvetica Neue&quot;, sans-serif; font-size: 12px; font-weight: 200;" fill="rgb(50, 49, 63)" stroke="none" stroke-width="1px">2</text><text x="0" y="25.428571428571445" dx="0em" dy="0.3em" style="text-anchor: end; visibility: inherit; font-family: &quot;Helvetica Neue&quot;, sans-serif; font-size: 12px; font-weight: 200;" fill="rgb(50, 49, 63)" stroke="none" stroke-width="1px">2.5</text><text x="0" y="0" dx="0em" dy="0.3em" style="text-anchor: end; visibility: hidden; font-family: &quot;Helvetica Neue&quot;, sans-serif; font-size: 12px; font-weight: 200;" fill="rgb(50, 49, 63)" stroke="none" stroke-width="1px">3</text></g><line x1="50" y1="0" x2="50" y2="178" fill="rgb(0, 0, 0)" stroke="rgb(204, 204, 204)" stroke-width="1px"></line></g></g><g transform="translate(50, 0)" clip-path="url(#clip_0)"><clipPath id="clip_0"><rect width="280" height="178"></rect></clipPath><g><g><g><line x1="0" y1="0" x2="0" y2="178" fill="rgb(0, 0, 0)" stroke="rgb(60, 60, 60)" stroke-width="1px" opacity="0.25"></line><line x1="23.333333333333332" y1="0" x2="23.333333333333332" y2="178" fill="rgb(0, 0, 0)" stroke="rgb(60, 60, 60)" stroke-width="1px" opacity="0.25"></line><line x1="46.666666666666664" y1="0" x2="46.666666666666664" y2="178" fill="rgb(0, 0, 0)" stroke="rgb(60, 60, 60)" stroke-width="1px" opacity="0.25"></line><line x1="70" y1="0" x2="70" y2="178" fill="rgb(0, 0, 0)" stroke="rgb(60, 60, 60)" stroke-width="1px" opacity="0.25"></line><line x1="93.33333333333333" y1="0" x2="93.33333333333333" y2="178" fill="rgb(0, 0, 0)" stroke="rgb(60, 60, 60)" stroke-width="1px" opacity="0.25"></line><line x1="116.66666666666667" y1="0" x2="116.66666666666667" y2="178" fill="rgb(0, 0, 0)" stroke="rgb(60, 60, 60)" stroke-width="1px" opacity="0.25"></line><line x1="140" y1="0" x2="140" y2="178" fill="rgb(0, 0, 0)" stroke="rgb(60, 60, 60)" stroke-width="1px" opacity="0.25"></line><line x1="163.33333333333334" y1="0" x2="163.33333333333334" y2="178" fill="rgb(0, 0, 0)" stroke="rgb(60, 60, 60)" stroke-width="1px" opacity="0.25"></line><line x1="186.66666666666666" y1="0" x2="186.66666666666666" y2="178" fill="rgb(0, 0, 0)" stroke="rgb(60, 60, 60)" stroke-width="1px" opacity="0.25"></line><line x1="210" y1="0" x2="210" y2="178" fill="rgb(0, 0, 0)" stroke="rgb(60, 60, 60)" stroke-width="1px" opacity="0.25"></line><line x1="233.33333333333334" y1="0" x2="233.33333333333334" y2="178" fill="rgb(0, 0, 0)" stroke="rgb(60, 60, 60)" stroke-width="1px" opacity="0.25"></line><line x1="256.66666666666663" y1="0" x2="256.66666666666663" y2="178" fill="rgb(0, 0, 0)" stroke="rgb(60, 60, 60)" stroke-width="1px" opacity="0.25"></line><line x1="280" y1="0" x2="280" y2="178" fill="rgb(0, 0, 0)" stroke="rgb(60, 60, 60)" stroke-width="1px" opacity="0.25"></line></g><g><line x1="0" y1="178" x2="280" y2="178" fill="rgb(0, 0, 0)" stroke="rgb(60, 60, 60)" stroke-width="1px" opacity="0.25"></line><line x1="0" y1="152.57142857142858" x2="280" y2="152.57142857142858" fill="rgb(0, 0, 0)" stroke="rgb(60, 60, 60)" stroke-width="1px" opacity="0.25"></line><line x1="0" y1="127.14285714285714" x2="280" y2="127.14285714285714" fill="rgb(0, 0, 0)" stroke="rgb(60, 60, 60)" stroke-width="1px" opacity="0.25"></line><line x1="0" y1="101.71428571428572" x2="280" y2="101.71428571428572" fill="rgb(0, 0, 0)" stroke="rgb(60, 60, 60)" stroke-width="1px" opacity="0.25"></line><line x1="0" y1="76.28571428571429" x2="280" y2="76.28571428571429" fill="rgb(0, 0, 0)" stroke="rgb(60, 60, 60)" stroke-width="1px" opacity="0.25"></line><line x1="0" y1="50.85714285714286" x2="280" y2="50.85714285714286" fill="rgb(0, 0, 0)" stroke="rgb(60, 60, 60)" stroke-width="1px" opacity="0.25"></line><line x1="0" y1="25.428571428571445" x2="280" y2="25.428571428571445" fill="rgb(0, 0, 0)" stroke="rgb(60, 60, 60)" stroke-width="1px" opacity="0.25"></line><line x1="0" y1="0" x2="280" y2="0" fill="rgb(0, 0, 0)" stroke="rgb(60, 60, 60)" stroke-width="1px" opacity="0.25"></line></g></g></g><g><g><line x1="0" y1="152.57142857142858" x2="280" y2="152.57142857142858" fill="rgb(0, 0, 0)" stroke="rgb(153, 153, 153)" stroke-width="1.5px"></line></g></g><g><g><line x1="23.333333333333332" y1="0" x2="23.333333333333332" y2="178" fill="rgb(0, 0, 0)" stroke="rgb(153, 153, 153)" stroke-width="1.5px"></line></g></g><g><g><g><g><g><path stroke="rgb(0, 119, 187)" stroke-width="2px" d="M25.666666666666664,-164.7079200744629L28,14.859867504664834L30.333333333333336,39.84837586539132L32.666666666666664,55.041767597198486L35,55.70609392438617L37.333333333333336,56.898876667022705L39.666666666666664,58.690715312957764L42,60.293096337999614L44.33333333333333,60.102862698691226L46.666666666666664,62.40087148121425L49,65.59909193856376L51.33333333333333,67.31842742647443L53.66666666666667,67.37193025861468L56,68.83548280170986L58.333333333333336,67.66590179715838L60.66666666666667,67.91665274756295L63,68.50782721383231L65.33333333333333,68.93000548226493L67.66666666666667,70.24733311789376L70,70.14066089902606L72.33333333333334,71.71557208469936L74.66666666666667,71.62703929628644L77,73.07387713023594L23.333333333333332,59.75409092221942L25.666666666666664,-0.40711866106306616L28,33.26872185298373L23.333333333333332,47.84982899257113L25.666666666666664,-185.30713490077426L30.333333333333336,-60.06869970049178L32.666666666666664,13.903339930943076L35,51.06720134190151L37.333333333333336,73.9318928037371L39.666666666666664,103.12027042252677L42,114.26234585898263L44.33333333333333,112.06838417053223L46.666666666666664,122.7305861881801L49,125.50276647295271L51.33333333333333,128.51313742569516L53.66666666666667,130.2356997558049L56,133.5940982954843L58.333333333333336,133.56877160072327L60.66666666666667,134.09716435841153L63,134.70121588025773L65.33333333333333,136.03393353734697L67.66666666666667,135.62909897736142L70,136.5848308290754L72.33333333333334,137.26435923576355L74.66666666666667,137.2848812852587L77,137.54790605817522L79.33333333333333,138.5417446579252L81.66666666666667,138.52453129632133L84,139.02336411816734L86.33333333333334,139.54142309938157L88.66666666666666,139.6967374256679L91,139.99156607048852L93.33333333333333,140.23518053122928L95.66666666666667,140.5129670841353L98,140.68459295375007L100.33333333333333,140.86535750116622L102.66666666666666,140.99003274100167L105,141.09844872781207L107.33333333333334,141.27493153299605L109.66666666666667,141.41223374434878L112,141.49210983514786L114.33333333333333,141.58219314473016L116.66666666666667,141.6268164770944L119,141.71388968399594L121.33333333333334,141.731255369527L123.66666666666666,141.791850737163L126,141.82154556683133L128.33333333333331,141.86917066574097L130.66666666666666,141.90354812996728L133,141.92138291256768L23.333333333333332,36.183786528451094L23.333333333333332,22.3055580684117L25.666666666666664,13.830297197614414L28,-9.325825554983965L30.333333333333336,2.787918908255449L32.666666666666664,60.11666733877999L35,63.7414493560791L37.333333333333336,74.71922411237445L39.666666666666664,98.52660213197981L42,113.63712055342538L44.33333333333333,118.69502973556519L46.666666666666664,121.3127247606005L49,127.53349450656346L51.33333333333333,130.21422435556138L53.66666666666667,131.7722556250436L56,133.50030616351535L58.333333333333336,134.5692972966603L60.66666666666667,135.71367285932814L63,135.69147448880332L65.33333333333333,136.7648640700749L67.66666666666667,136.49131757872445L70,137.24521037510465L72.33333333333334,137.52117737701963L74.66666666666667,137.993373973029L77,138.06816123213088L79.33333333333333,138.5321171794619L81.66666666666667,138.77024267401015L84,138.7733634199415L86.33333333333334,139.63589121614183L88.66666666666666,139.8610623564039L91,140.28900013651167L93.33333333333333,140.2904438035829L95.66666666666667,140.52832830803735L98,140.7308395590101L100.33333333333333,140.8875164645059L102.66666666666666,141.00737190246582L105,141.14261205707277L107.33333333333334,141.27044290304184L109.66666666666667,141.37545092616762L112,141.3939616935594L114.33333333333333,141.55061662197113L116.66666666666667,141.61705637829644L119,141.68312328202384L121.33333333333334,141.7267296058791L123.66666666666666,141.7844042948314L126,141.8246973838125L128.33333333333331,141.8514442528997L130.66666666666666,141.89598422391074L133,141.91995515993665L135.33333333333334,141.9324730038643L137.66666666666666,141.94448234353746L140,141.96071279900414L142.33333333333331,141.98055886370796L144.66666666666669,142.00451540095466L147,142.01662628991264L149.33333333333334,142.0329446537154L151.66666666666666,142.03066055263793L154,142.04746392795016L156.33333333333334,142.0578151345253L158.66666666666666,142.06264857734953L161,142.06119278499057L163.33333333333334,142.0647174545697L165.66666666666666,142.07468292542865L168,142.08295843430926L170.33333333333331,142.08609206335885L172.66666666666669,142.09185460635592L175,142.0943751505443L177.33333333333331,142.09908582483018L179.66666666666669,142.09909188747406L182,142.1011016539165L184.33333333333334,142.10310156856264L186.66666666666666,142.10619200127465L189,142.10853672879082L191.33333333333334,142.1098030635289L193.66666666666666,142.11155289411545L196,142.11173174210955L198.33333333333334,142.11295942749297L200.66666666666666,142.11371043750216L203,142.11569974252154L205.33333333333331,142.11660610777992L207.66666666666669,142.11715780837196L210,142.11798839058196L212.33333333333331,142.11952527080263L214.66666666666669,142.12099318844932L217,142.12081964526857L219.33333333333334,142.12161536727632L221.66666666666666,142.12271119015557L224,142.12320226430893L226.33333333333334,142.12414424760001L228.66666666666666,142.12422988244464L231,142.1244117617607L233.33333333333334,142.12488464798247L235.66666666666666,142.1252696258681L238,142.12580920117242L240.33333333333331,142.12607974665505L242.66666666666669,142.12639045715332L245,142.12686031205314L247.33333333333331,142.12728318146299L249.66666666666669,142.12746506077903L252,142.1277386375836L254.33333333333334,142.12797962767738L256.66666666666663,142.12811603716443L259,142.12827215024402L261.3333333333333,142.12836763688495L263.6666666666667,142.12852526562554L266,142.128596501691L268.33333333333337,142.1287018401282L270.6666666666667,142.12875564609254" style="fill: none;" fill="none"></path></g><g><path stroke="rgb(255, 112, 67)" stroke-width="2px" d="M23.333333333333332,71.8968997001648L25.666666666666664,-57.015042986188604L28,11.800002643040244L30.333333333333336,23.255016599382657L32.666666666666664,27.821048327854697L35,30.87042481558663L37.333333333333336,30.685017040797646L39.666666666666664,33.057050704956055L42,31.69926098414828L44.33333333333333,33.7494046347482L46.666666666666664,33.30972957611084L49,34.40992968423026L51.33333333333333,35.214139393397744L53.66666666666667,36.610172271728516L56,35.23501913888114L58.333333333333336,35.14267294747489L60.66666666666667,36.30117143903459L63,34.818406377519864L65.33333333333333,35.55516311100553L67.66666666666667,35.71558066776822L70,35.20671871730258L72.33333333333334,35.68103572300504L74.66666666666667,36.5022087097168L77,35.75795854840959L23.333333333333332,89.0871080671038L25.666666666666664,97.59892061778477L28,98.61375263759068L23.333333333333332,93.00457634244646L25.666666666666664,105.41309867586409L28,79.55366727284023L30.333333333333336,87.52410391398838L32.666666666666664,92.39873027801514L35,98.84937122889927L37.333333333333336,98.35709060941423L39.666666666666664,103.83369810240609L42,110.96937537193298L44.33333333333333,117.28398575101579L46.666666666666664,118.95535056931632L49,122.06302544048854L51.33333333333333,122.60342526435852L53.66666666666667,124.8597503389631L56,125.49353003501892L58.333333333333336,126.96681312152317L60.66666666666667,127.67064818314144L63,128.18339022568296L65.33333333333333,128.9522956439427L67.66666666666667,129.5583978550775L70,129.67175868579318L72.33333333333334,130.52006200381686L74.66666666666667,130.8466429880687L77,131.32243170057023L79.33333333333333,131.5016176870891L81.66666666666667,132.4940148932593L84,132.4818365573883L86.33333333333334,132.7537703854697L88.66666666666666,133.09098979404996L91,133.14216457094466L93.33333333333333,133.65108260086606L95.66666666666667,134.93490200383323L98,134.19355736460005L100.33333333333333,134.7005201918738L102.66666666666666,135.58042504106248L105,135.6366469689778L107.33333333333334,135.59553466524397L109.66666666666667,136.41914180346896L112,136.62129156930106L114.33333333333333,136.87679411683763L116.66666666666667,137.05697589261192L119,136.7475324869156L121.33333333333334,137.20060901982444L123.66666666666666,137.57074100630624L126,137.6696424313954L128.33333333333331,137.80439833232333L130.66666666666666,137.85871052742004L133,137.75343726362502L23.333333333333332,93.0825298173087L23.333333333333332,90.98190253121513L25.666666666666664,98.44719362258911L28,104.43501840318953L30.333333333333336,103.22601202556065L32.666666666666664,105.62592778887068L35,110.0857298714774L37.333333333333336,110.10993194580078L39.666666666666664,109.89765453338623L42,113.28350472450256L44.33333333333333,113.8217886856624L46.666666666666664,121.64266596521651L49,125.32970224108016L51.33333333333333,125.07733256476266L53.66666666666667,126.41528531483242L56,126.89388254710606L58.333333333333336,128.29867139884402L60.66666666666667,130.0674386535372L63,130.62466989244734L65.33333333333333,130.59307593958718L67.66666666666667,131.9605189050947L70,132.15052216393607L72.33333333333334,133.00370136329104L74.66666666666667,133.17206553050448L77,133.51955202647616L79.33333333333333,133.3113866022655L81.66666666666667,133.94229563644956L84,133.78460323810577L86.33333333333334,134.01839545794894L88.66666666666666,134.2110935619899L91,134.78082142557417L93.33333333333333,136.0082597562245L95.66666666666667,135.52647357327598L98,135.7109386069434L100.33333333333333,135.9536747421537L102.66666666666666,136.00818245751518L105,136.74386307171415L107.33333333333334,137.25852697236198L109.66666666666667,137.41577225072044L112,137.48831481592995L114.33333333333333,137.7859012058803L116.66666666666667,138.49843616144997L119,137.49655091762543L121.33333333333334,138.29182732105255L123.66666666666666,138.37484765052795L126,138.03477425234658L128.33333333333331,138.42604970932007L130.66666666666666,138.66585607188088L133,138.99536228179932L135.33333333333334,138.90575337409973L137.66666666666666,139.01455661228727L140,139.31529103006636L142.33333333333331,139.13948193618228L144.66666666666669,139.178432907377L147,139.41942300115312L149.33333333333334,139.65038396630968L151.66666666666666,139.3165808575494L154,139.18000010081698L156.33333333333334,139.2333619764873L158.66666666666666,139.66552996635437L161,139.70523725237166L163.33333333333334,139.48332023620605L165.66666666666666,139.7397003514426L168,139.33294241768974L170.33333333333331,140.06215267521995L172.66666666666669,139.4682924577168L175,139.88755307878768L177.33333333333331,139.6649191549846L179.66666666666669,139.34073443072182L182,140.01982026440757L184.33333333333334,139.76328252043044L186.66666666666666,139.7458918264934L189,139.9262062226023L191.33333333333334,139.79912335532052L193.66666666666666,140.02231276886803L196,139.4134406873158L198.33333333333334,139.2960194008691L200.66666666666666,139.63648535524095L203,139.5369852440698L205.33333333333331,139.57744581358773L207.66666666666669,140.01874035596848L210,139.6106721333095L212.33333333333331,139.62414181232452L214.66666666666669,139.42311211994718L217,139.90779624666487L219.33333333333334,140.11862014021193L221.66666666666666,139.38816249370575L224,139.9637211050306L226.33333333333334,139.60759231022428L228.66666666666666,140.0882887329374L231,139.73186286858152L233.33333333333334,139.96341948849815L235.66666666666666,140.03418115207126L238,139.72952117238725L240.33333333333331,139.99640027114322L242.66666666666669,139.66286998135703L245,139.91092608656203L247.33333333333331,139.8649651833943L249.66666666666669,140.0165714451245L252,139.97430648122514L254.33333333333334,139.76916934762681L256.66666666666663,139.73100045749118L259,139.82949871676308L261.3333333333333,140.11611854178565L263.6666666666667,139.4185802936554L266,139.63966369628906L268.33333333333337,139.66731541497367L270.6666666666667,139.60855323927743" style="fill: none;" fill="none"></path></g></g></g></g></g></g><g transform="translate(50, 178)" clip-path="url(#clip_1)"><clipPath id="clip_1"><rect width="280" height="22"></rect></clipPath><g><g><line x1="0" y1="0" x2="0" y2="5" style="visibility: inherit;" fill="rgb(0, 0, 0)" stroke="rgb(204, 204, 204)" stroke-width="1px"></line><line x1="23.333333333333332" y1="0" x2="23.333333333333332" y2="5" style="visibility: inherit;" fill="rgb(0, 0, 0)" stroke="rgb(204, 204, 204)" stroke-width="1px"></line><line x1="46.666666666666664" y1="0" x2="46.666666666666664" y2="5" style="visibility: inherit;" fill="rgb(0, 0, 0)" stroke="rgb(204, 204, 204)" stroke-width="1px"></line><line x1="70" y1="0" x2="70" y2="5" style="visibility: inherit;" fill="rgb(0, 0, 0)" stroke="rgb(204, 204, 204)" stroke-width="1px"></line><line x1="93.33333333333333" y1="0" x2="93.33333333333333" y2="5" style="visibility: inherit;" fill="rgb(0, 0, 0)" stroke="rgb(204, 204, 204)" stroke-width="1px"></line><line x1="116.66666666666667" y1="0" x2="116.66666666666667" y2="5" style="visibility: inherit;" fill="rgb(0, 0, 0)" stroke="rgb(204, 204, 204)" stroke-width="1px"></line><line x1="140" y1="0" x2="140" y2="5" style="visibility: inherit;" fill="rgb(0, 0, 0)" stroke="rgb(204, 204, 204)" stroke-width="1px"></line><line x1="163.33333333333334" y1="0" x2="163.33333333333334" y2="5" style="visibility: inherit;" fill="rgb(0, 0, 0)" stroke="rgb(204, 204, 204)" stroke-width="1px"></line><line x1="186.66666666666666" y1="0" x2="186.66666666666666" y2="5" style="visibility: inherit;" fill="rgb(0, 0, 0)" stroke="rgb(204, 204, 204)" stroke-width="1px"></line><line x1="210" y1="0" x2="210" y2="5" style="visibility: inherit;" fill="rgb(0, 0, 0)" stroke="rgb(204, 204, 204)" stroke-width="1px"></line><line x1="233.33333333333334" y1="0" x2="233.33333333333334" y2="5" style="visibility: inherit;" fill="rgb(0, 0, 0)" stroke="rgb(204, 204, 204)" stroke-width="1px"></line><line x1="256.66666666666663" y1="0" x2="256.66666666666663" y2="5" style="visibility: inherit;" fill="rgb(0, 0, 0)" stroke="rgb(204, 204, 204)" stroke-width="1px"></line><line x1="280" y1="0" x2="280" y2="5" style="visibility: inherit;" fill="rgb(0, 0, 0)" stroke="rgb(204, 204, 204)" stroke-width="1px"></line></g><g transform="translate(0, 8)"><text x="0" y="0" dx="0em" dy="0.95em" style="text-anchor: middle; visibility: hidden; font-family: &quot;Helvetica Neue&quot;, sans-serif; font-size: 12px; font-weight: 200;" fill="rgb(50, 49, 63)" stroke="none" stroke-width="1px">-10</text><text x="23.333333333333332" y="0" dx="0em" dy="0.95em" style="text-anchor: middle; visibility: inherit; font-family: &quot;Helvetica Neue&quot;, sans-serif; font-size: 12px; font-weight: 200;" fill="rgb(50, 49, 63)" stroke="none" stroke-width="1px">0</text><text x="46.666666666666664" y="0" dx="0em" dy="0.95em" style="text-anchor: middle; visibility: inherit; font-family: &quot;Helvetica Neue&quot;, sans-serif; font-size: 12px; font-weight: 200;" fill="rgb(50, 49, 63)" stroke="none" stroke-width="1px">10</text><text x="70" y="0" dx="0em" dy="0.95em" style="text-anchor: middle; visibility: inherit; font-family: &quot;Helvetica Neue&quot;, sans-serif; font-size: 12px; font-weight: 200;" fill="rgb(50, 49, 63)" stroke="none" stroke-width="1px">20</text><text x="93.33333333333333" y="0" dx="0em" dy="0.95em" style="text-anchor: middle; visibility: inherit; font-family: &quot;Helvetica Neue&quot;, sans-serif; font-size: 12px; font-weight: 200;" fill="rgb(50, 49, 63)" stroke="none" stroke-width="1px">30</text><text x="116.66666666666667" y="0" dx="0em" dy="0.95em" style="text-anchor: middle; visibility: inherit; font-family: &quot;Helvetica Neue&quot;, sans-serif; font-size: 12px; font-weight: 200;" fill="rgb(50, 49, 63)" stroke="none" stroke-width="1px">40</text><text x="140" y="0" dx="0em" dy="0.95em" style="text-anchor: middle; visibility: inherit; font-family: &quot;Helvetica Neue&quot;, sans-serif; font-size: 12px; font-weight: 200;" fill="rgb(50, 49, 63)" stroke="none" stroke-width="1px">50</text><text x="163.33333333333334" y="0" dx="0em" dy="0.95em" style="text-anchor: middle; visibility: inherit; font-family: &quot;Helvetica Neue&quot;, sans-serif; font-size: 12px; font-weight: 200;" fill="rgb(50, 49, 63)" stroke="none" stroke-width="1px">60</text><text x="186.66666666666666" y="0" dx="0em" dy="0.95em" style="text-anchor: middle; visibility: inherit; font-family: &quot;Helvetica Neue&quot;, sans-serif; font-size: 12px; font-weight: 200;" fill="rgb(50, 49, 63)" stroke="none" stroke-width="1px">70</text><text x="210" y="0" dx="0em" dy="0.95em" style="text-anchor: middle; visibility: inherit; font-family: &quot;Helvetica Neue&quot;, sans-serif; font-size: 12px; font-weight: 200;" fill="rgb(50, 49, 63)" stroke="none" stroke-width="1px">80</text><text x="233.33333333333334" y="0" dx="0em" dy="0.95em" style="text-anchor: middle; visibility: inherit; font-family: &quot;Helvetica Neue&quot;, sans-serif; font-size: 12px; font-weight: 200;" fill="rgb(50, 49, 63)" stroke="none" stroke-width="1px">90</text><text x="256.66666666666663" y="0" dx="0em" dy="0.95em" style="text-anchor: middle; visibility: inherit; font-family: &quot;Helvetica Neue&quot;, sans-serif; font-size: 12px; font-weight: 200;" fill="rgb(50, 49, 63)" stroke="none" stroke-width="1px">100</text><text x="280" y="0" dx="0em" dy="0.95em" style="text-anchor: middle; visibility: hidden; font-family: &quot;Helvetica Neue&quot;, sans-serif; font-size: 12px; font-weight: 200;" fill="rgb(50, 49, 63)" stroke="none" stroke-width="1px">110</text></g><line x1="0" y1="0" x2="280" y2="0" fill="rgb(0, 0, 0)" stroke="rgb(204, 204, 204)" stroke-width="1px"></line></g></g></g></g></svg>