<svg viewBox="0 0 330 200" xmlns="http://www.w3.org/2000/svg"><g><g><g><g><g><line x1="50" y1="178" x2="45" y2="178" style="visibility: inherit;" fill="rgb(0, 0, 0)" stroke="rgb(204, 204, 204)" stroke-width="1px"></line><line x1="50" y1="155.75" x2="45" y2="155.75" style="visibility: inherit;" fill="rgb(0, 0, 0)" stroke="rgb(204, 204, 204)" stroke-width="1px"></line><line x1="50" y1="133.49999999999997" x2="45" y2="133.49999999999997" style="visibility: inherit;" fill="rgb(0, 0, 0)" stroke="rgb(204, 204, 204)" stroke-width="1px"></line><line x1="50" y1="111.25000000000001" x2="45" y2="111.25000000000001" style="visibility: inherit;" fill="rgb(0, 0, 0)" stroke="rgb(204, 204, 204)" stroke-width="1px"></line><line x1="50" y1="88.99999999999999" x2="45" y2="88.99999999999999" style="visibility: inherit;" fill="rgb(0, 0, 0)" stroke="rgb(204, 204, 204)" stroke-width="1px"></line><line x1="50" y1="66.75000000000001" x2="45" y2="66.75000000000001" style="visibility: inherit;" fill="rgb(0, 0, 0)" stroke="rgb(204, 204, 204)" stroke-width="1px"></line><line x1="50" y1="44.5" x2="45" y2="44.5" style="visibility: inherit;" fill="rgb(0, 0, 0)" stroke="rgb(204, 204, 204)" stroke-width="1px"></line><line x1="50" y1="22.24999999999997" x2="45" y2="22.24999999999997" style="visibility: inherit;" fill="rgb(0, 0, 0)" stroke="rgb(204, 204, 204)" stroke-width="1px"></line><line x1="50" y1="0" x2="45" y2="0" style="visibility: inherit;" fill="rgb(0, 0, 0)" stroke="rgb(204, 204, 204)" stroke-width="1px"></line></g><g transform="translate(40, 0)"><text x="0" y="178" dx="0em" dy="0.3em" style="text-anchor: end; visibility: hidden; font-family: &quot;Helvetica Neue&quot;, sans-serif; font-size: 12px; font-weight: 200;" fill="rgb(50, 49, 63)" stroke="none" stroke-width="1px">0.45</text><text x="0" y="155.75" dx="0em" dy="0.3em" style="text-anchor: end; visibility: inherit; font-family: &quot;Helvetica Neue&quot;, sans-serif; font-size: 12px; font-weight: 200;" fill="rgb(50, 49, 63)" stroke="none" stroke-width="1px">0.5</text><text x="0" y="133.49999999999997" dx="0em" dy="0.3em" style="text-anchor: end; visibility: hidden; font-family: &quot;Helvetica Neue&quot;, sans-serif; font-size: 12px; font-weight: 200;" fill="rgb(50, 49, 63)" stroke="none" stroke-width="1px">0.55</text><text x="0" y="111.25000000000001" dx="0em" dy="0.3em" style="text-anchor: end; visibility: inherit; font-family: &quot;Helvetica Neue&quot;, sans-serif; font-size: 12px; font-weight: 200;" fill="rgb(50, 49, 63)" stroke="none" stroke-width="1px">0.6</text><text x="0" y="88.99999999999999" dx="0em" dy="0.3em" style="text-anchor: end; visibility: hidden; font-family: &quot;Helvetica Neue&quot;, sans-serif; font-size: 12px; font-weight: 200;" fill="rgb(50, 49, 63)" stroke="none" stroke-width="1px">0.65</text><text x="0" y="66.75000000000001" dx="0em" dy="0.3em" style="text-anchor: end; visibility: inherit; font-family: &quot;Helvetica Neue&quot;, sans-serif; font-size: 12px; font-weight: 200;" fill="rgb(50, 49, 63)" stroke="none" stroke-width="1px">0.7</text><text x="0" y="44.5" dx="0em" dy="0.3em" style="text-anchor: end; visibility: hidden; font-family: &quot;Helvetica Neue&quot;, sans-serif; font-size: 12px; font-weight: 200;" fill="rgb(50, 49, 63)" stroke="none" stroke-width="1px">0.75</text><text x="0" y="22.24999999999997" dx="0em" dy="0.3em" style="text-anchor: end; visibility: inherit; font-family: &quot;Helvetica Neue&quot;, sans-serif; font-size: 12px; font-weight: 200;" fill="rgb(50, 49, 63)" stroke="none" stroke-width="1px">0.8</text><text x="0" y="0" dx="0em" dy="0.3em" style="text-anchor: end; visibility: hidden; font-family: &quot;Helvetica Neue&quot;, sans-serif; font-size: 12px; font-weight: 200;" fill="rgb(50, 49, 63)" stroke="none" stroke-width="1px">0.85</text></g><line x1="50" y1="0" x2="50" y2="178" fill="rgb(0, 0, 0)" stroke="rgb(204, 204, 204)" stroke-width="1px"></line></g></g><g transform="translate(50, 0)" clip-path="url(#clip_0)"><clipPath id="clip_0"><rect width="280" height="178"></rect></clipPath><g><g><g><line x1="0" y1="0" x2="0" y2="178" fill="rgb(0, 0, 0)" stroke="rgb(60, 60, 60)" stroke-width="1px" opacity="0.25"></line><line x1="25.454545454545457" y1="0" x2="25.454545454545457" y2="178" fill="rgb(0, 0, 0)" stroke="rgb(60, 60, 60)" stroke-width="1px" opacity="0.25"></line><line x1="50.909090909090914" y1="0" x2="50.909090909090914" y2="178" fill="rgb(0, 0, 0)" stroke="rgb(60, 60, 60)" stroke-width="1px" opacity="0.25"></line><line x1="76.36363636363636" y1="0" x2="76.36363636363636" y2="178" fill="rgb(0, 0, 0)" stroke="rgb(60, 60, 60)" stroke-width="1px" opacity="0.25"></line><line x1="101.81818181818183" y1="0" x2="101.81818181818183" y2="178" fill="rgb(0, 0, 0)" stroke="rgb(60, 60, 60)" stroke-width="1px" opacity="0.25"></line><line x1="127.27272727272727" y1="0" x2="127.27272727272727" y2="178" fill="rgb(0, 0, 0)" stroke="rgb(60, 60, 60)" stroke-width="1px" opacity="0.25"></line><line x1="152.72727272727272" y1="0" x2="152.72727272727272" y2="178" fill="rgb(0, 0, 0)" stroke="rgb(60, 60, 60)" stroke-width="1px" opacity="0.25"></line><line x1="178.1818181818182" y1="0" x2="178.1818181818182" y2="178" fill="rgb(0, 0, 0)" stroke="rgb(60, 60, 60)" stroke-width="1px" opacity="0.25"></line><line x1="203.63636363636365" y1="0" x2="203.63636363636365" y2="178" fill="rgb(0, 0, 0)" stroke="rgb(60, 60, 60)" stroke-width="1px" opacity="0.25"></line><line x1="229.0909090909091" y1="0" x2="229.0909090909091" y2="178" fill="rgb(0, 0, 0)" stroke="rgb(60, 60, 60)" stroke-width="1px" opacity="0.25"></line><line x1="254.54545454545453" y1="0" x2="254.54545454545453" y2="178" fill="rgb(0, 0, 0)" stroke="rgb(60, 60, 60)" stroke-width="1px" opacity="0.25"></line><line x1="280" y1="0" x2="280" y2="178" fill="rgb(0, 0, 0)" stroke="rgb(60, 60, 60)" stroke-width="1px" opacity="0.25"></line></g><g><line x1="0" y1="178" x2="280" y2="178" fill="rgb(0, 0, 0)" stroke="rgb(60, 60, 60)" stroke-width="1px" opacity="0.25"></line><line x1="0" y1="155.75" x2="280" y2="155.75" fill="rgb(0, 0, 0)" stroke="rgb(60, 60, 60)" stroke-width="1px" opacity="0.25"></line><line x1="0" y1="133.49999999999997" x2="280" y2="133.49999999999997" fill="rgb(0, 0, 0)" stroke="rgb(60, 60, 60)" stroke-width="1px" opacity="0.25"></line><line x1="0" y1="111.25000000000001" x2="280" y2="111.25000000000001" fill="rgb(0, 0, 0)" stroke="rgb(60, 60, 60)" stroke-width="1px" opacity="0.25"></line><line x1="0" y1="88.99999999999999" x2="280" y2="88.99999999999999" fill="rgb(0, 0, 0)" stroke="rgb(60, 60, 60)" stroke-width="1px" opacity="0.25"></line><line x1="0" y1="66.75000000000001" x2="280" y2="66.75000000000001" fill="rgb(0, 0, 0)" stroke="rgb(60, 60, 60)" stroke-width="1px" opacity="0.25"></line><line x1="0" y1="44.5" x2="280" y2="44.5" fill="rgb(0, 0, 0)" stroke="rgb(60, 60, 60)" stroke-width="1px" opacity="0.25"></line><line x1="0" y1="22.24999999999997" x2="280" y2="22.24999999999997" fill="rgb(0, 0, 0)" stroke="rgb(60, 60, 60)" stroke-width="1px" opacity="0.25"></line><line x1="0" y1="0" x2="280" y2="0" fill="rgb(0, 0, 0)" stroke="rgb(60, 60, 60)" stroke-width="1px" opacity="0.25"></line></g></g></g><g><g><line x1="0" y1="378.25" x2="280" y2="378.25" fill="rgb(0, 0, 0)" stroke="rgb(153, 153, 153)" stroke-width="1.5px"></line></g></g><g><g><line x1="25.454545454545457" y1="0" x2="25.454545454545457" y2="178" fill="rgb(0, 0, 0)" stroke="rgb(153, 153, 153)" stroke-width="1.5px"></line></g></g><g><g><g><g><g><path stroke="rgb(0, 119, 187)" stroke-width="2px" d="M38.18181818181818,183.04333117604256L40.72727272727273,162.12833520770073L43.27272727272727,150.26166659593582L45.81818181818182,162.27667105197906L48.36363636363637,142.99332958459854L50.909090909090914,129.49499320983887L53.45454545454545,136.91167932748795L56,138.69165641069412L58.54545454545454,115.1066682934761L61.090909090909086,120.59500169754028L63.63636363636363,114.95834571123123L66.18181818181819,108.43167465925217L68.72727272727273,110.95334422588348L71.27272727272727,109.9150065779686L73.81818181818181,103.6850072145462L76.36363636363636,95.08166086673737L78.9090909090909,99.53165662288666L81.45454545454545,98.93833976984024L84,100.27332258224487L86.54545454545455,96.5649927854538L89.0909090909091,88.7033389210701L91.63636363636364,91.67000275850296L94.18181818181819,91.37333106994629L96.72727272727273,100.42167168855667L99.27272727272728,109.47001230716705L101.81818181818183,114.80999660491943L104.36363636363637,115.1066682934761L106.9090909090909,115.84833425283432L109.45454545454545,106.20667678117752L112,112.88167041540146L114.54545454545455,107.24498790502548L117.09090909090908,105.91000509262085L119.63636363636363,109.61833488941193L122.18181818181817,109.9150065779686L124.72727272727272,108.57999724149704L127.27272727272727,48.356678903102875L129.8181818181818,45.83500933647156L132.36363636363637,42.42332470417023L134.9090909090909,40.939992785453796L137.45454545454547,40.34667593240738L140,39.30833828449249L142.54545454545453,38.41832321882248L145.0909090909091,39.30833828449249L147.63636363636363,38.41832321882248L150.1818181818182,38.270000636577606L152.72727272727272,37.52833467721939L155.27272727272728,37.38001209497452L157.8181818181818,37.23166298866272L160.36363636363637,37.08334040641785L162.9090909090909,37.23166298866272L165.45454545454547,37.08334040641785L168,36.6383461356163L170.54545454545456,36.93499130010605L173.0909090909091,36.786668717861176L175.63636363636365,36.93499130010605L178.1818181818182,36.786668717861176L180.72727272727275,36.6383461356163L183.27272727272728,36.6383461356163L185.81818181818184,36.786668717861176L188.36363636363637,36.6383461356163L190.9090909090909,36.93499130010605L193.45454545454547,36.489997029304504L196,36.19332534074783L198.54545454545456,36.04500275850296L201.0909090909091,36.19332534074783L203.63636363636365,35.74833106994629L206.1818181818182,35.600008487701416L208.72727272727275,35.74833106994629L211.27272727272725,35.600008487701416L213.8181818181818,35.45165938138962L216.36363636363635,35.15498769283295L218.9090909090909,35.45165938138962L221.45454545454544,35.600008487701416L224,35.74833106994629L226.54545454545453,35.89665365219116L229.0909090909091,36.04500275850296L231.63636363636363,35.89665365219116L234.18181818181816,36.19332534074783L236.72727272727272,36.34167444705963L239.27272727272725,36.19332534074783L241.8181818181818,36.19332534074783L244.36363636363635,35.74833106994629L246.9090909090909,35.74833106994629L249.45454545454544,35.89665365219116L252,35.89665365219116L254.54545454545453,36.04500275850296L257.0909090909091,35.89665365219116L259.6363636363636,36.04500275850296L262.1818181818182,36.19332534074783L264.72727272727275,36.19332534074783L267.2727272727273,35.89665365219116L269.8181818181818,36.19332534074783" style="fill: none;" fill="none"></path></g><g><path stroke="rgb(255, 112, 67)" stroke-width="2px" d="M25.454545454545457,145.40959250926971L28,87.44116467237473L30.545454545454543,119.96425938606262L33.09090909090909,98.2476795911789L35.63636363636363,106.8445275425911L38.18181818181818,99.42152869701385L40.72727272727273,97.10833829641342L43.27272727272727,90.96279156208038L45.81818181818182,90.61752778291702L48.36363636363637,97.24642258882523L50.909090909090914,94.20817029476166L53.45454545454545,96.2797264456749L56,92.58548092842102L58.54545454545454,85.74940663576126L61.090909090909086,84.50648885965347L63.63636363636363,84.16125160455704L66.18181818181819,83.26357108354568L68.72727272727273,79.67292857170105L71.27272727272727,79.12051182985306L73.81818181818181,75.94414871931076L76.36363636363636,77.4287537932396L78.9090909090909,77.4287537932396L81.45454545454545,74.32145935297012L84,72.59516698122025L86.54545454545455,73.38927102088928L89.0909090909091,70.45459520816803L91.63636363636364,71.28320705890656L94.18181818181819,69.34978824853897L96.72727272727273,67.48538506031036L99.27272727272728,66.4496202468872L101.81818181818183,63.0661306977272L104.36363636363637,60.82195591926575L106.9090909090909,62.16845017671585L109.45454545454545,60.47669214010239L112,59.164732217788696L114.54545454545455,59.19926655292511L117.09090909090908,58.5432733297348L119.63636363636363,56.299098551273346L122.18181818181817,55.67763966321945L124.72727272727272,53.468025743961334L127.27272727272727,75.87510657310486L129.8181818181818,61.23626184463501L132.36363636363637,57.81823796033859L134.9090909090909,56.54078584909439L137.45454545454547,54.88356214761734L140,52.259615778923035L142.54545454545453,51.50004607439041L145.0909090909091,50.84407937526703L147.63636363636363,50.32619696855545L150.1818181818182,49.39400863647461L152.72727272727272,49.4285164475441L155.27272727272728,49.04874485731125L157.8181818181818,47.66771626472473L160.36363636363637,47.94393789768219L162.9090909090909,46.114069044589996L165.45454545454547,46.80457007884979L168,46.839104413986206L170.54545454545456,45.07830423116684L173.0909090909091,45.63072097301483L175.63636363636365,45.73429745435715L178.1818181818182,44.974727749824524L180.72727272727275,44.62946397066116L183.27272727272728,43.69727563858032L185.81818181818184,44.38780319690704L188.36363636363637,43.041282415390015L190.9090909090909,43.869920790195465L193.45454545454547,43.76634430885315L196,41.349550902843475L198.54545454545456,40.8316684961319L201.0909090909091,42.799621641635895L203.63636363636365,40.76259982585907L206.1818181818182,39.24348694086075L208.72727272727275,40.79713416099548L211.27272727272725,38.44938290119171L213.8181818181818,39.65779286623001L216.36363636363635,39.208952605724335L218.9090909090909,39.27802127599716L221.45454545454544,40.417362570762634L224,39.554216384887695L226.54545454545453,39.416105568408966L229.0909090909091,38.9327574968338L231.63636363636363,39.24348694086075L234.18181818181816,37.96603482961655L236.72727272727272,39.208952605724335L239.27272727272725,39.554216384887695L241.8181818181818,37.171957314014435L244.36363636363635,38.06961131095886L246.9090909090909,38.9327574968338L249.45454545454544,38.829181015491486L252,38.483917236328125L254.54545454545453,37.68983972072601L257.0909090909091,37.79341620206833L259.6363636363636,37.6553053855896L262.1818181818182,38.104145646095276L264.72727272727275,37.48268675804138L267.2727272727273,37.620771050453186L269.8181818181818,37.82792401313782" style="fill: none;" fill="none"></path></g></g></g></g></g></g><g transform="translate(50, 178)" clip-path="url(#clip_1)"><clipPath id="clip_1"><rect width="280" height="22"></rect></clipPath><g><g><line x1="0" y1="0" x2="0" y2="5" style="visibility: inherit;" fill="rgb(0, 0, 0)" stroke="rgb(204, 204, 204)" stroke-width="1px"></line><line x1="25.454545454545457" y1="0" x2="25.454545454545457" y2="5" style="visibility: inherit;" fill="rgb(0, 0, 0)" stroke="rgb(204, 204, 204)" stroke-width="1px"></line><line x1="50.909090909090914" y1="0" x2="50.909090909090914" y2="5" style="visibility: inherit;" fill="rgb(0, 0, 0)" stroke="rgb(204, 204, 204)" stroke-width="1px"></line><line x1="76.36363636363636" y1="0" x2="76.36363636363636" y2="5" style="visibility: inherit;" fill="rgb(0, 0, 0)" stroke="rgb(204, 204, 204)" stroke-width="1px"></line><line x1="101.81818181818183" y1="0" x2="101.81818181818183" y2="5" style="visibility: inherit;" fill="rgb(0, 0, 0)" stroke="rgb(204, 204, 204)" stroke-width="1px"></line><line x1="127.27272727272727" y1="0" x2="127.27272727272727" y2="5" style="visibility: inherit;" fill="rgb(0, 0, 0)" stroke="rgb(204, 204, 204)" stroke-width="1px"></line><line x1="152.72727272727272" y1="0" x2="152.72727272727272" y2="5" style="visibility: inherit;" fill="rgb(0, 0, 0)" stroke="rgb(204, 204, 204)" stroke-width="1px"></line><line x1="178.1818181818182" y1="0" x2="178.1818181818182" y2="5" style="visibility: inherit;" fill="rgb(0, 0, 0)" stroke="rgb(204, 204, 204)" stroke-width="1px"></line><line x1="203.63636363636365" y1="0" x2="203.63636363636365" y2="5" style="visibility: inherit;" fill="rgb(0, 0, 0)" stroke="rgb(204, 204, 204)" stroke-width="1px"></line><line x1="229.0909090909091" y1="0" x2="229.0909090909091" y2="5" style="visibility: inherit;" fill="rgb(0, 0, 0)" stroke="rgb(204, 204, 204)" stroke-width="1px"></line><line x1="254.54545454545453" y1="0" x2="254.54545454545453" y2="5" style="visibility: inherit;" fill="rgb(0, 0, 0)" stroke="rgb(204, 204, 204)" stroke-width="1px"></line><line x1="280" y1="0" x2="280" y2="5" style="visibility: inherit;" fill="rgb(0, 0, 0)" stroke="rgb(204, 204, 204)" stroke-width="1px"></line></g><g transform="translate(0, 8)"><text x="0" y="0" dx="0em" dy="0.95em" style="text-anchor: middle; visibility: hidden; font-family: &quot;Helvetica Neue&quot;, sans-serif; font-size: 12px; font-weight: 200;" fill="rgb(50, 49, 63)" stroke="none" stroke-width="1px">-10</text><text x="25.454545454545457" y="0" dx="0em" dy="0.95em" style="text-anchor: middle; visibility: inherit; font-family: &quot;Helvetica Neue&quot;, sans-serif; font-size: 12px; font-weight: 200;" fill="rgb(50, 49, 63)" stroke="none" stroke-width="1px">0</text><text x="50.909090909090914" y="0" dx="0em" dy="0.95em" style="text-anchor: middle; visibility: inherit; font-family: &quot;Helvetica Neue&quot;, sans-serif; font-size: 12px; font-weight: 200;" fill="rgb(50, 49, 63)" stroke="none" stroke-width="1px">10</text><text x="76.36363636363636" y="0" dx="0em" dy="0.95em" style="text-anchor: middle; visibility: inherit; font-family: &quot;Helvetica Neue&quot;, sans-serif; font-size: 12px; font-weight: 200;" fill="rgb(50, 49, 63)" stroke="none" stroke-width="1px">20</text><text x="101.81818181818183" y="0" dx="0em" dy="0.95em" style="text-anchor: middle; visibility: inherit; font-family: &quot;Helvetica Neue&quot;, sans-serif; font-size: 12px; font-weight: 200;" fill="rgb(50, 49, 63)" stroke="none" stroke-width="1px">30</text><text x="127.27272727272727" y="0" dx="0em" dy="0.95em" style="text-anchor: middle; visibility: inherit; font-family: &quot;Helvetica Neue&quot;, sans-serif; font-size: 12px; font-weight: 200;" fill="rgb(50, 49, 63)" stroke="none" stroke-width="1px">40</text><text x="152.72727272727272" y="0" dx="0em" dy="0.95em" style="text-anchor: middle; visibility: inherit; font-family: &quot;Helvetica Neue&quot;, sans-serif; font-size: 12px; font-weight: 200;" fill="rgb(50, 49, 63)" stroke="none" stroke-width="1px">50</text><text x="178.1818181818182" y="0" dx="0em" dy="0.95em" style="text-anchor: middle; visibility: inherit; font-family: &quot;Helvetica Neue&quot;, sans-serif; font-size: 12px; font-weight: 200;" fill="rgb(50, 49, 63)" stroke="none" stroke-width="1px">60</text><text x="203.63636363636365" y="0" dx="0em" dy="0.95em" style="text-anchor: middle; visibility: inherit; font-family: &quot;Helvetica Neue&quot;, sans-serif; font-size: 12px; font-weight: 200;" fill="rgb(50, 49, 63)" stroke="none" stroke-width="1px">70</text><text x="229.0909090909091" y="0" dx="0em" dy="0.95em" style="text-anchor: middle; visibility: inherit; font-family: &quot;Helvetica Neue&quot;, sans-serif; font-size: 12px; font-weight: 200;" fill="rgb(50, 49, 63)" stroke="none" stroke-width="1px">80</text><text x="254.54545454545453" y="0" dx="0em" dy="0.95em" style="text-anchor: middle; visibility: inherit; font-family: &quot;Helvetica Neue&quot;, sans-serif; font-size: 12px; font-weight: 200;" fill="rgb(50, 49, 63)" stroke="none" stroke-width="1px">90</text><text x="280" y="0" dx="0em" dy="0.95em" style="text-anchor: middle; visibility: hidden; font-family: &quot;Helvetica Neue&quot;, sans-serif; font-size: 12px; font-weight: 200;" fill="rgb(50, 49, 63)" stroke="none" stroke-width="1px">100</text></g><line x1="0" y1="0" x2="280" y2="0" fill="rgb(0, 0, 0)" stroke="rgb(204, 204, 204)" stroke-width="1px"></line></g></g></g></g></svg>